<?xml version="1.0" encoding="UTF-8" standalone="no"?>
<!-- Created with Inkscape (http://www.inkscape.org/) -->

<svg
   version="1.1"
   id="svg3997"
   xml:space="preserve"
   width="75.73333"
   height="83.199997"
   viewBox="0 0 75.73333 83.199997"
   sodipodi:docname="lon.svg"
   inkscape:version="1.2.2 (732a01da63, 2022-12-09)"
   xmlns:inkscape="http://www.inkscape.org/namespaces/inkscape"
   xmlns:sodipodi="http://sodipodi.sourceforge.net/DTD/sodipodi-0.dtd"
   xmlns="http://www.w3.org/2000/svg"
   xmlns:svg="http://www.w3.org/2000/svg"
   xmlns:rdf="http://www.w3.org/1999/02/22-rdf-syntax-ns#"
   xmlns:cc="http://creativecommons.org/ns#"
   xmlns:dc="http://purl.org/dc/elements/1.1/"><sodipodi:namedview
     id="namedview11"
     pagecolor="#ffffff"
     bordercolor="#000000"
     borderopacity="0.25"
     inkscape:showpageshadow="2"
     inkscape:pageopacity="0.0"
     inkscape:pagecheckerboard="0"
     inkscape:deskcolor="#d1d1d1"
     showgrid="false"
     inkscape:zoom="25.45082"
     inkscape:cx="13.300161"
     inkscape:cy="12.769726"
     inkscape:window-width="1366"
     inkscape:window-height="745"
     inkscape:window-x="-8"
     inkscape:window-y="-8"
     inkscape:window-maximized="1"
     inkscape:current-layer="svg3997" /><title
     id="title18318">lon</title><defs
     id="defs4001" /><g
     id="g4003"
     transform="matrix(1.3333333,0,0,-1.3333333,-87.71628,411.63588)"><g
       id="g4279"><g
         id="g4281"><path
           id="path4291"
           style="fill:#000000;fill-opacity:1;fill-rule:evenodd;stroke:none"
           d="m 95.5,273.7 c 1.3,0 2.5,0.2 3.7,0.1 1.7,0 3.3,0.1 5,-0.1 1,0 2.1,0 3.1,-0.2 0.7,0 1.5,0.1 2.3,0 0.4,-0.1 0.8,-0.2 0.9,-0.5 0.4,-0.6 0.8,-1.3 0.6,-1.9 -0.2,-0.4 -0.2,-0.8 -0.4,-1.2 -0.3,-0.4 -0.8,-0.7 -1.3,-0.8 -0.4,0 -0.7,0.3 -1.1,0.4 -0.8,0.2 -1.6,0.3 -2.5,0.4 -2,0.3 -3.9,0.2 -5.9,0.2 -1.6,0.1 -3.2,0 -4.8,0 -0.8,-0.1 -1.6,-0.2 -2.5,-0.2 -2.6,-0.1 -5.2,-0.6 -7.8,-0.4 -1.1,0.1 -2.3,-0.1 -3.4,0.1 -0.7,0.1 -1.3,0.3 -2,0.5 -0.3,0.1 -0.5,-0.1 -0.8,-0.2 0.1,0.1 0.2,0.2 0.2,0.2 -0.5,0.4 -0.8,1 -1.3,1.4 -0.4,0.4 -0.4,1.3 0.2,1.6 0.3,0.2 0.6,0.3 1,0.2 0.7,0 1.4,-0.1 2.1,-0.2 2.2,-0.3 4.5,-0.3 6.8,0 1.4,0 2.7,0.4 4.1,0.4 0.6,-0.1 1.2,0.1 1.9,0.1 0.6,0 1.3,0.1 1.9,0.1 z m -3.3,12.2 c 0.8,0.2 1.5,-0.2 2.3,-0.5 0.6,-0.2 0.9,-0.8 1.2,-1.4 0.3,-1.1 0.6,-2.2 0.2,-3.3 -0.2,-0.8 -0.7,-1.3 -1.2,-1.9 -0.5,-0.5 -1.2,-0.4 -1.8,-0.4 -0.8,0 -1.2,0.6 -1.6,1.2 -0.4,0.7 -0.9,1.4 -1,2.2 -0.2,0.8 -0.3,1.6 0,2.4 0.2,0.5 0.4,1 0.9,1.3 0.3,0.2 0.6,0.3 1,0.4 z" /></g></g></g><metadata
     id="metadata4614"><rdf:RDF><cc:Work
         rdf:about=""><dc:title>lon</dc:title><dc:date>2014-05-25</dc:date><dc:creator><cc:Agent><dc:title>Sonja Lang</dc:title></cc:Agent></dc:creator><dc:source>Toki Pona: The Language of Good</dc:source><dc:description>original sitelen pona vector image</dc:description><cc:license
           rdf:resource="http://creativecommons.org/publicdomain/zero/1.0/" /></cc:Work><cc:License
         rdf:about="http://creativecommons.org/publicdomain/zero/1.0/"><cc:permits
           rdf:resource="http://creativecommons.org/ns#Reproduction" /><cc:permits
           rdf:resource="http://creativecommons.org/ns#Distribution" /><cc:permits
           rdf:resource="http://creativecommons.org/ns#DerivativeWorks" /></cc:License></rdf:RDF></metadata></svg>
