<?xml version="1.0" encoding="UTF-8" standalone="no"?>
<!-- Created with Inkscape (http://www.inkscape.org/) -->

<svg
   version="1.1"
   id="svg5031"
   xml:space="preserve"
   width="75.73333"
   height="83.199997"
   viewBox="0 0 75.73333 83.199997"
   sodipodi:docname="mu.svg"
   inkscape:version="1.2.2 (732a01da63, 2022-12-09)"
   xmlns:inkscape="http://www.inkscape.org/namespaces/inkscape"
   xmlns:sodipodi="http://sodipodi.sourceforge.net/DTD/sodipodi-0.dtd"
   xmlns="http://www.w3.org/2000/svg"
   xmlns:svg="http://www.w3.org/2000/svg"
   xmlns:rdf="http://www.w3.org/1999/02/22-rdf-syntax-ns#"
   xmlns:cc="http://creativecommons.org/ns#"
   xmlns:dc="http://purl.org/dc/elements/1.1/"><sodipodi:namedview
     id="namedview14"
     pagecolor="#ffffff"
     bordercolor="#000000"
     borderopacity="0.25"
     inkscape:showpageshadow="2"
     inkscape:pageopacity="0.0"
     inkscape:pagecheckerboard="0"
     inkscape:deskcolor="#d1d1d1"
     showgrid="false"
     inkscape:zoom="17.41875"
     inkscape:cx="5.654826"
     inkscape:cy="26.637962"
     inkscape:window-width="1366"
     inkscape:window-height="745"
     inkscape:window-x="-8"
     inkscape:window-y="-8"
     inkscape:window-maximized="1"
     inkscape:current-layer="svg5031" /><title
     id="title1263">mu</title><defs
     id="defs5035" /><g
     id="g5037"
     transform="matrix(1.3333333,0,0,-1.3333333,-196.1287,662.94467)"><g
       id="g5157"><g
         id="g5159"><path
           id="path5175"
           style="fill:#000000;fill-opacity:1;fill-rule:evenodd;stroke:none"
           d="m 174.5,458.6 c 0.4,0.1 0.8,0 1.1,-0.2 0.6,-0.5 1.2,-1 1.9,-1.4 0.5,-0.3 0.3,-1 0.4,-1.5 0,-0.6 -0.6,-0.9 -0.9,-1.2 -0.6,-0.6 -1.3,-1.2 -2.1,-1.2 -0.7,0.1 -1.4,0.3 -1.7,0.9 -0.4,0.6 -0.5,1.4 -0.3,2.1 0,0.8 0.3,1.5 0.8,2.2 0.2,0.2 0.5,0.2 0.8,0.3 z m 1.2,15.3 c 0.5,0 1,-0.1 1.5,-0.3 1.1,-0.3 2.2,-0.6 3.3,-1.1 1.6,-0.8 3.1,-2 3.8,-3.7 0.6,-1.9 0.9,-3.8 1.1,-5.8 0,-0.8 -0.2,-1.6 -0.3,-2.4 -0.1,-0.9 -0.2,-1.9 -0.6,-2.7 -0.7,-1.5 -1.4,-3 -2.6,-4.2 -0.6,-0.7 -1.3,-1.3 -2.1,-1.8 -0.3,-0.3 -0.7,-0.4 -1.1,-0.6 -0.6,-0.3 -1.2,-0.7 -1.9,-0.8 -1.2,-0.2 -2.3,-0.4 -3.5,-0.3 -1.2,0.3 -2.4,0.5 -3.3,1.3 -0.7,0.3 -1.2,0.9 -1.7,1.5 -0.6,0.7 -1.2,1.2 -1.6,2 -0.4,0.9 -1,1.7 -1.3,2.7 -0.2,0.8 -0.6,1.6 -0.8,2.4 -0.2,1.6 -0.4,3.2 0,4.7 0.3,0.8 0.4,1.6 0.8,2.4 0.6,1.3 1.5,2.7 2.6,3.7 1.1,0.9 2.2,1.8 3.6,2.4 0.3,0.2 0.7,0.2 1.1,0.3 0.4,0.1 0.8,0.3 1.2,0.3 0.6,0 1.2,-0.1 1.8,0 z m -8.1,6.6 c 0.3,0.1 0.8,0.1 1.1,-0.2 0.5,-0.6 0.5,-1.4 0.2,-2.1 -0.4,-1.2 -1,-2.5 -2.1,-3.2 -0.7,-0.2 -1.4,-0.5 -2.1,-0.3 -0.5,0.7 -0.9,1.6 -0.8,2.5 -0.1,1 0.2,2.1 1.1,2.6 0.5,0.1 1,0 1.4,0.2 0.4,0 0.8,0.3 1.2,0.5 z m 17.1,1.3 c 0.5,0.1 0.9,-0.3 1.3,-0.6 0.5,-0.4 1.2,-0.6 1.3,-1.3 0.1,-0.6 -0.3,-1.2 -0.6,-1.7 -0.5,-0.6 -1.2,-1 -1.9,-1.5 -0.5,-0.4 -1.3,-0.6 -2,-0.8 -0.5,0 -0.7,0.5 -0.9,0.9 -0.2,0.9 -0.1,1.7 0.2,2.5 0.3,0.7 0.9,1.3 1.4,1.9 0.4,0.2 0.8,0.4 1.2,0.6 z m -2.2,3 c 0.7,0.3 1.5,0.1 2.2,0 0.5,-0.1 0.9,-0.4 1.4,-0.7 0.5,-0.2 1,-0.2 1.4,-0.5 0.5,-0.5 1.1,-0.8 1.6,-1.3 0.6,-0.6 0.9,-1.3 1.5,-1.9 0.3,-0.4 0.4,-0.9 0.5,-1.4 0.1,-0.6 0,-1.2 -0.3,-1.6 -0.9,-1.3 -1.9,-2.6 -3.3,-3.4 -0.7,-0.5 -1.5,-0.9 -2.3,-1.3 0.7,-0.8 1.4,-1.5 1.9,-2.5 0.8,-1.4 1,-3 1.4,-4.5 0.5,-2.8 0.4,-5.7 -0.4,-8.5 -0.4,-1 -0.8,-2.1 -1.4,-3 -0.8,-1.1 -1.3,-2.2 -2.3,-3.1 -0.6,-0.5 -1.2,-1.2 -1.8,-1.6 -1.5,-0.8 -3,-1.7 -4.6,-2 -1,-0.3 -2,-0.3 -3,-0.4 -0.9,-0.1 -1.7,0 -2.6,0.1 -1,0.3 -2.1,0.6 -3,1.3 -0.9,0.6 -1.8,1.1 -2.5,1.9 -0.5,0.6 -1.1,1 -1.4,1.6 -0.7,1.1 -1.6,2.1 -2.2,3.3 -0.3,0.6 -0.7,1.2 -0.9,1.9 -0.4,1.4 -1,2.8 -1.1,4.4 -0.3,1.2 -0.2,2.4 -0.1,3.7 0.1,1 0.6,1.9 0.8,2.9 0.4,1.2 1.1,2.3 1.9,3.3 -0.5,0.4 -1.1,0.7 -1.6,1.1 -0.5,0.6 -0.9,1.2 -1.4,1.8 -0.7,1.2 -1.2,2.6 -1,4 0.2,0.6 0.3,1.2 0.5,1.8 0.4,0.7 0.8,1.4 1.4,2 0.8,0.8 1.7,1.6 2.9,1.8 0.8,0.1 1.5,0 2.3,-0.1 1.2,-0.1 2.4,-0.6 3.3,-1.4 0.4,-0.4 0.9,-0.7 1.3,-1.1 0.9,-1 1,-2.5 1,-3.8 0.7,0 1.4,0.2 2.1,0.2 0.7,-0.1 1.4,-0.3 2.1,-0.6 0.3,-0.2 0.7,-0.1 1.1,-0.1 -0.2,1.4 -0.3,2.9 0.5,4 0.5,0.7 1,1.5 1.6,2.1 0.7,0.7 1.5,1.4 2.5,1.6 z" /></g></g></g><metadata
     id="metadata5572"><rdf:RDF><cc:Work
         rdf:about=""><dc:date>2014-05-25</dc:date><dc:creator><cc:Agent><dc:title>Sonja Lang</dc:title></cc:Agent></dc:creator><dc:source>Toki Pona: The Language of Good</dc:source><dc:description>original sitelen pona vector image</dc:description><cc:license
           rdf:resource="http://creativecommons.org/publicdomain/zero/1.0/" /><dc:title>mu</dc:title></cc:Work><cc:License
         rdf:about="http://creativecommons.org/publicdomain/zero/1.0/"><cc:permits
           rdf:resource="http://creativecommons.org/ns#Reproduction" /><cc:permits
           rdf:resource="http://creativecommons.org/ns#Distribution" /><cc:permits
           rdf:resource="http://creativecommons.org/ns#DerivativeWorks" /></cc:License></rdf:RDF></metadata></svg>
