<?xml version="1.0" encoding="UTF-8" standalone="no"?>
<!-- Created with Inkscape (http://www.inkscape.org/) -->

<svg
   version="1.1"
   id="svg6073"
   xml:space="preserve"
   width="75.73333"
   height="83.199997"
   viewBox="0 0 75.73333 83.199997"
   sodipodi:docname="pona.svg"
   inkscape:version="1.2.2 (732a01da63, 2022-12-09)"
   xmlns:inkscape="http://www.inkscape.org/namespaces/inkscape"
   xmlns:sodipodi="http://sodipodi.sourceforge.net/DTD/sodipodi-0.dtd"
   xmlns="http://www.w3.org/2000/svg"
   xmlns:svg="http://www.w3.org/2000/svg"
   xmlns:rdf="http://www.w3.org/1999/02/22-rdf-syntax-ns#"
   xmlns:cc="http://creativecommons.org/ns#"
   xmlns:dc="http://purl.org/dc/elements/1.1/"><sodipodi:namedview
     id="namedview10"
     pagecolor="#ffffff"
     bordercolor="#000000"
     borderopacity="0.25"
     inkscape:showpageshadow="2"
     inkscape:pageopacity="0.0"
     inkscape:pagecheckerboard="0"
     inkscape:deskcolor="#d1d1d1"
     showgrid="false"
     inkscape:zoom="11.165866"
     inkscape:cx="24.315177"
     inkscape:cy="41.644778"
     inkscape:window-width="1366"
     inkscape:window-height="745"
     inkscape:window-x="-8"
     inkscape:window-y="-8"
     inkscape:window-maximized="1"
     inkscape:current-layer="svg6073" /><title
     id="title8438">pona</title><defs
     id="defs6077" /><g
     id="g6079"
     transform="matrix(1.3333333,0,0,-1.3333333,-88.102619,405.46666)"><g
       id="g6365"><g
         id="g6367"><path
           d="m 105.8,282.7 c 0.6,0 1.1,0 1.6,-0.1 1,-1 1.9,-2.1 2.3,-3.4 0.5,-1.1 0.3,-2.2 0.3,-3.3 -0.3,-2 -0.8,-4.1 -2,-5.8 -0.4,-0.6 -0.7,-1.2 -1.2,-1.8 -0.5,-0.6 -1.1,-1.1 -1.7,-1.7 -0.9,-0.9 -1.8,-1.8 -3.1,-2.2 -0.8,-0.3 -1.6,-0.7 -2.4,-0.9 -1.6,-0.4 -3.1,-0.5 -4.7,-0.3 -1,0.1 -2.1,0.2 -3.1,0.6 -2.5,1 -4.9,2.3 -6.7,4.3 -1.3,1.1 -2.3,2.5 -3.2,3.9 -0.8,1.3 -1.4,2.8 -1.9,4.4 -0.4,1 -0.7,2 -0.9,3.1 -0.1,0.7 -0.3,1.4 -0.1,2 0.2,0.3 0.5,0.4 0.8,0.5 0.5,0 1.2,0.1 1.7,-0.3 0.4,-0.3 0.9,-0.5 1.4,-0.9 0.3,-0.6 0.3,-1.4 0.5,-2.1 0.4,-1.5 0.9,-3 1.7,-4.4 1,-1.6 1.9,-3.3 3.5,-4.2 0.8,-0.5 1.4,-1.2 2.2,-1.5 0.6,-0.3 1.2,-0.6 1.7,-0.9 1.1,-0.4 2.3,-0.5 3.4,-0.5 0.9,0 1.8,0.2 2.7,0.5 1.1,0.3 2.1,0.7 3,1.5 0.7,0.6 1.5,1.2 2.1,2 0.6,0.6 1,1.4 1.5,2.1 0.8,1.7 1.1,3.7 1.1,5.6 0,0.4 -0.1,0.9 -0.3,1.3 -0.2,0.8 -0.2,1.7 -0.2,2.5 z"
           style="fill:#000000;fill-opacity:1;fill-rule:evenodd;stroke:none"
           id="path6375" /></g></g></g><metadata
     id="metadata6622"><rdf:RDF><cc:Work
         rdf:about=""><cc:license
           rdf:resource="http://creativecommons.org/publicdomain/zero/1.0/" /><dc:title>pona</dc:title><dc:date>2014-05-25</dc:date><dc:creator><cc:Agent><dc:title>Sonja Lang</dc:title></cc:Agent></dc:creator><dc:source>Toki Pona: The Language of Good</dc:source><dc:description>original sitelen pona vector image</dc:description></cc:Work><cc:License
         rdf:about="http://creativecommons.org/publicdomain/zero/1.0/"><cc:permits
           rdf:resource="http://creativecommons.org/ns#Reproduction" /><cc:permits
           rdf:resource="http://creativecommons.org/ns#Distribution" /><cc:permits
           rdf:resource="http://creativecommons.org/ns#DerivativeWorks" /></cc:License></rdf:RDF></metadata></svg>
